<svg id="visual" viewBox="0 0 960 540" width="960" height="540" xmlns="http://www.w3.org/2000/svg" xmlns:xlink="http://www.w3.org/1999/xlink" version="1.1"><g><g transform="translate(868 113)"><path d="M129.1 -161.2C164.5 -124.1 188.5 -80.8 186.5 -40.5C184.5 -0.3 156.5 36.9 131.8 72.8C107.2 108.7 86 143.3 49.2 173.1C12.5 202.9 -39.8 227.9 -85.2 218.3C-130.7 208.7 -169.3 164.4 -200 114.1C-230.7 63.8 -253.4 7.5 -232.9 -29.2C-212.3 -66 -148.4 -83.3 -102.3 -118.5C-56.3 -153.8 -28.1 -206.9 9.3 -218C46.8 -229.2 93.6 -198.3 129.1 -161.2Z" fill="#B2EBF2"></path></g></g></svg>