<svg id="visual" viewBox="0 0 900 600" width="900" height="600" xmlns="http://www.w3.org/2000/svg" xmlns:xlink="http://www.w3.org/1999/xlink" version="1.1"><g transform="translate(478.57765249384863 285.64708260637275)"><path d="M199.4 -237.4C238.2 -205.2 235.3 -123.1 243.9 -47C252.5 29 272.6 99 250.9 152.7C229.2 206.3 165.7 243.6 98.9 265.1C32 286.6 -38.2 292.2 -97.7 269.9C-157.2 247.6 -205.9 197.3 -249 136.9C-292.2 76.4 -329.8 5.8 -314.2 -50.7C-298.7 -107.3 -230 -149.8 -168.8 -178C-107.6 -206.3 -53.8 -220.3 13.3 -236.2C80.3 -252 160.7 -269.6 199.4 -237.4" fill="#BBDEFB"></path></g></svg>